<svg xmlns="http://www.w3.org/2000/svg" viewBox="0 0 512 512">
  <defs>
    <linearGradient id="grad" x1="0%" y1="0%" x2="100%" y2="100%">
      <stop offset="0%" style="stop-color:#7C3AED;stop-opacity:1" />
      <stop offset="100%" style="stop-color:#2DD4BF;stop-opacity:1" />
    </linearGradient>
  </defs>
  <rect width="512" height="512" rx="128" fill="url(#grad)" />
  <path d="M360 160h-30c-5.5 0-10 4.5-10 10v30c0 5.5 4.5 10 10 10h30c5.5 0 10-4.5 10-10v-30c0-5.5-4.5-10-10-10zM152 160h-30c-5.5 0-10 4.5-10 10v30c0 5.5 4.5 10 10 10h30c5.5 0 10-4.5 10-10v-30c0-5.5-4.5-10-10-10zM256 128c-70.7 0-128 57.3-128 128 0 70.7 57.3 128 128 128s128-57.3 128-128c0-70.7-57.3-128-128-128zm0 224c-53 0-96-43-96-96s43-96 96-96 96 43 96 96-43 96-96 96z" fill="white"/>
  <path d="M192 360s20 32 64 32 64-32 64-32" stroke="white" stroke-width="24" stroke-linecap="round" fill="none"/>
</svg>